<svg width="500" height="500" viewBox="0 0 500 500" fill="none" xmlns="http://www.w3.org/2000/svg">
<path d="M380.536 172.707C376.306 149.417 390.187 144.585 380.536 122.446C359.085 81.4246 300.629 83.192 257.732 80.038C209.887 78.369 161.461 84.1181 117.353 101.572C106.817 105.741 96.6832 110.643 86.9691 116.213C78.5695 121.031 79.724 130.189 85.0204 135.185C46.8288 184.41 68.6724 250.486 38.1991 302.301C32.5698 311.563 25.1242 319.868 20.231 329.505C12.7931 344.154 12.3166 365.145 29.1839 374.873C52.9401 386.479 66.1968 363.501 77.8695 396.811C136.166 512.955 253.374 519.496 364.641 458.942C374.268 454.069 384.093 448.56 391.362 440.903C407.862 424.003 405.919 400.235 406.283 379.129C406.487 366.761 406.521 354.391 406.389 342.02C405.869 291.911 387.623 222.402 380.536 172.707Z" fill="#F2C7B0"/>
<path fill-rule="evenodd" clip-rule="evenodd" d="M360.235 2.05124C286.952 -4.8482 210.754 5.67047 143.573 33.4079C108.027 48.0841 75.3826 68.2839 46.7715 92.4619C41.5464 91.1259 35.8283 90.8467 31.0742 91.5945C23.2968 92.8209 16.1766 96.8688 11.5102 102.651C4.41191 111.425 4.66385 122.612 10.0533 131.505C9.19777 132.132 8.41017 132.851 7.6872 133.628C2.002 139.8 2.59352 147.767 6.76705 154.517C7.93454 156.409 10.0349 158.504 12.2578 160.72C16.7926 165.242 21.8376 170.272 20.5145 175.135C19.6272 178.435 16.4067 181.526 14.5335 184.428C12.2003 188.037 10.2286 191.806 8.47589 195.674C-5.16835 225.661 -0.00221425 257.879 7.69491 288.481L8.38767 291.22C9.91041 297.349 11.312 304.537 13.8215 311.16C-4.78956 334.49 -0.32027 374.053 30.1212 387.263C37.6029 390.513 45.9281 392.348 54.2422 392.099C58.5801 391.959 63.1041 391.421 67.2119 390.125C69.2604 389.477 71.2869 388.649 72.8752 387.323C76.6873 405.678 85.3958 422.588 96.339 438.491C102.506 447.434 109.66 456.367 117.941 463.795C126.693 471.632 141.799 479.289 152.469 469.648C156.105 466.368 154.934 461.273 150.935 458.84C143.442 454.254 135.511 451.442 128.895 445.609C121.534 439.119 114.567 432.11 107.994 424.961C98.6214 414.769 90.3846 403.654 82.3277 392.497L75.7562 383.375C75.7708 383.345 75.783 383.315 75.7939 383.285L75.8547 383.096C75.8723 383.002 75.8889 382.911 75.9048 382.822L76.064 381.888C76.1011 381.816 76.1482 381.726 76.2038 381.616L76.4682 381.072C78.4826 377.552 75.9752 373.504 71.5936 373.334C70.1852 373.334 69.9907 373.295 71.0022 373.209L71.4183 373.175C69.9176 372.378 68.2964 371.979 66.5437 371.979C64.4953 371.979 62.5455 372.617 60.5847 373.056C57.6928 373.704 55.1175 374.161 52.139 374.152C46.0266 374.132 40.1333 372.527 34.9739 369.566C23.0558 362.726 19.6162 348.06 21.5442 336.056C22.0919 332.656 22.9901 329.445 24.2717 326.454C25.8601 327.681 27.6347 328.728 29.6173 329.575C29.9131 329.705 30.1541 329.336 29.8802 329.166C27.9414 328.03 26.2763 326.674 24.8534 325.158C28.4233 317.561 34.4591 311.409 43.0362 307.092C48.4475 304.369 54.5599 303.074 60.5737 303.263C60.5945 303.423 60.6285 303.583 60.6614 303.742C61.3194 306.862 62.9451 308.434 65.3111 310.321L66.1592 310.99C69.3918 313.503 73.5325 313.274 76.1395 310.911L76.2042 310.99C77.0378 310.243 77.7498 309.545 78.3632 308.856C79.5781 309.684 80.7293 310.612 81.8149 311.638C82.2191 312.016 82.8982 311.529 82.6244 311.07C81.7689 309.664 80.806 308.338 79.7325 307.111C81.1237 304.998 81.6604 302.765 81.6714 299.495C81.6786 296.121 81.5753 292.736 81.4722 289.356C81.4346 288.122 81.3969 286.888 81.3647 285.656C81.1335 276.752 80.6307 267.849 80.2473 258.946C80.1533 256.716 79.9536 254.409 79.7511 252.07C79.27 246.511 78.7737 240.776 79.6449 235.505C80.3664 231.145 83.2611 230.123 87.2475 229.065L92.4291 227.702C104.612 224.454 116.953 220.389 119.595 207.279C121.235 199.117 118.512 191.487 115.779 183.83C113.821 178.348 111.859 172.849 111.489 167.129C110.7 155.115 114.753 142.881 122.257 132.941C129.53 134.656 136.771 136.48 144.165 137.826C154.396 139.701 164.659 141.376 174.957 142.891C195.191 145.872 215.488 148.254 235.939 149.641C276.929 152.413 318.226 151.017 358.888 145.444C364.672 144.656 370.434 143.729 376.152 142.582C376.119 143.47 376.074 144.367 376.02 145.263C375.703 150.269 375.549 155.244 375.538 160.25C375.352 161.556 375.396 162.971 375.66 164.517L375.966 166.321C376.185 167.578 376.732 168.724 377.543 169.731C379.494 197.449 383.602 225.017 387.511 252.574L388.442 259.167C393.085 292.13 397.485 325.129 401.182 358.19C401.511 361.121 401.901 364.099 402.295 367.107C404.054 380.539 405.891 394.557 402.661 407.583C399.462 420.514 390.392 430.564 379.098 438.6C352.557 457.514 319.278 469.998 286.876 477.654C269.524 481.752 250.76 485.839 232.74 485.65C226.288 485.579 219.442 484.872 213.539 482.339C208.495 480.186 205.329 476.308 202.438 472.134L201.882 471.323C199.473 467.783 192.44 467.983 191.465 472.559C188.562 486.109 202.037 494.544 214.885 497.814C229.508 501.538 244.738 499.807 259.521 497.753L262.075 497.395C300.371 491.991 336.815 480.345 371.442 464.703C386.766 457.783 401.018 448.461 411.468 436.018C423.112 422.139 426.716 405.718 425.697 388.519C424.558 369.566 421.272 350.563 418.643 331.749L417.823 325.932C415.357 308.481 412.78 291.041 409.901 273.642C404.392 240.31 398.422 206.781 388.541 174.257C388.759 174.238 388.979 174.218 389.198 174.188C395.442 173.331 399.123 168.994 399.659 163.4L400.667 152.901L401.214 152.933C419.338 153.948 442.892 151.911 451.253 134.825C454.167 128.873 454.901 122.263 453.543 116.291C465.636 113.438 476.864 107.487 485.518 99.2617C490.009 94.9934 489.691 88.8228 485.518 84.4957C483.042 81.9134 480.402 79.6002 477.62 77.5264C485.518 74.973 492.923 70.1883 497.042 63.5182C502.343 54.9337 500.263 44.425 492.846 37.4757C486.473 31.4961 477.434 28.5803 469.048 25.6426L466.071 24.5953C432.101 12.7459 396.406 5.45132 360.235 2.05124ZM60.1799 327.402C49.7735 326.594 41.3388 329.804 33.7027 335.936C32.948 336.534 33.7794 337.472 34.6119 337.342C42.1812 336.126 51.1307 337.491 58.3615 339.615C66.4117 341.988 70.7397 346.973 77.2246 351.39C84.3447 356.236 94.2363 346.774 89.3825 340.323C83.2384 332.157 70.6411 328.218 60.1799 327.402Z" fill="black"/>
<path fill-rule="evenodd" clip-rule="evenodd" d="M344.644 237.765L343.07 237.471C341.219 237.134 339.358 237.277 337.722 237.882C336.119 238.476 334.722 239.51 333.745 241.002C332.447 242.989 332.274 244.657 332.876 246.859C333.341 248.561 334.36 249.842 335.695 250.766C337.101 251.741 338.882 252.309 340.734 252.507C349.271 253.42 357.68 255.129 365.854 257.556C369.683 258.693 373.298 260.234 376.88 261.833L379.968 263.217C382.816 264.485 385.758 265.707 389.476 266.594C389.769 266.664 390.057 266.729 390.344 266.791C391.374 266.497 391.55 266.14 391.768 265.881L391.856 265.78C392.122 265.477 392.449 265.013 392.139 262.847C384.028 247.533 361.773 241.023 344.644 237.765ZM238.343 242.109L240.399 241.781C246.761 240.78 254.672 239.817 259.172 244.473C261.559 246.941 262.381 251.529 259.172 253.892C254.97 256.988 250.438 256.886 245.606 256.777C243.948 256.739 242.254 256.701 240.526 256.791C234.953 257.082 229.596 257.921 224.227 259.318C212.449 262.382 202.853 267.975 192.793 274.117C191.473 274.923 190.126 273.386 190.756 272.263C196.563 261.911 207.816 253.407 219.088 248.223C225.104 245.457 231.687 243.161 238.343 242.109ZM223.418 287.29C224.332 276.964 241.61 274.62 243.329 284.837C244.868 293.99 243.056 302.398 238.526 310.638C234.198 318.511 223.32 314.838 222.498 307.669C221.685 300.588 222.261 296.365 222.848 292.063C223.058 290.526 223.269 288.98 223.418 287.29ZM364.991 278.995C360.825 277.887 357.347 279.847 354.938 282.719C354.66 283.05 354.433 283.378 354.229 283.703C346.709 289.992 349.542 302.743 355.457 309.128C359.086 313.043 367.117 311.916 369.601 307.469C374.173 299.28 378.01 282.457 364.991 278.995ZM331.628 355.978C340.528 344.633 327.924 333.962 319.651 329.385C317.484 327.969 319.204 323.28 323.836 324.004C365.896 330.582 344.103 396.526 290.401 360.339C284.008 355.644 291.75 345.305 298.641 349.325C298.991 349.569 299.357 349.826 299.739 350.096C307.481 355.543 321.647 365.512 331.628 355.978ZM293.112 425.658C285.748 422.924 279.178 418.363 274.375 412.537C272.705 410.512 272.272 408.372 272.622 406.416C273.016 404.216 274.446 402.223 276.396 400.885C278.351 399.544 280.798 398.883 283.163 399.22C285.219 399.513 287.265 400.537 288.884 402.662L289.222 403.087C292.078 406.603 295.799 409.488 300.039 411.348C304.126 413.141 308.697 413.977 313.427 413.491C322.436 412.565 328.645 408.13 335.244 402.108C336.063 401.348 336.881 400.563 337.704 399.767C338.223 399.045 338.944 398.58 339.744 398.337C340.633 398.067 341.638 398.082 342.558 398.375C343.447 398.657 344.241 399.191 344.772 399.902C345.278 400.578 345.565 401.414 345.472 402.375C344.869 408.615 341.283 414.185 336.192 418.558C330.537 423.415 323.042 426.775 315.984 427.954C308.209 429.252 300.286 428.322 293.112 425.658Z" fill="black"/>
</svg>
